# xmcd
#
# Track frame offsets:
#	150
#	8348
#	20782
#	34998
#	45923
#	62635
#	78247
#
# Disc length: 1201 seconds
#
# Revision: 0
# Processed by: cddbd v1.5.1PL2 Copyright (c) Steve Scherf et al.
# Submitted via: dBpowerAMP V4.0
#
DISCID=4604af07
DTITLE=norma - pasion de gavilanes
DYEAR=2005
DGENRE=Blues
TTITLE0=moro
TTITLE1=moro
TTITLE2=moro
TTITLE3=moro
TTITLE4=moro
TTITLE5=negra
TTITLE6=negra
EXTD=
EXTT0=
EXTT1=
EXTT2=
EXTT3=
EXTT4=
EXTT5=
EXTT6=
PLAYORDER=
